# xmcd
#
# Track frame offsets:
# 150
# 16206
# 34599
# 56910
# 76320
# 95199
# 114155
# 133038
# 154962
# 173769
# 192670
# 212558
# 234045
# 253814
# 270050
# 289787
# 309033
#
# Disc length: 4394 seconds
#
#
# Revision: 3
# Processed by: cddbd v1.5.2PL0 Copyright (c) Steve Scherf et al.
# Submitted via: FreeRIP 2.945 
#
DISCID=dd112811
DTITLE=ZONE - E~Complete A side Singles~
DYEAR=2005
DGENRE=J-Pop
TTITLE0=GOOD DAYS
TTITLE1=Daibakuhatsu NO.1
TTITLE2=secret base ~Kimi ga Kureta Mono~
TTITLE3=Sekai no Honno Katasumi kara
TTITLE4=Yume no Kakera
TTITLE5=Hitoshizuku
TTITLE6=Akashi
TTITLE7=Shiroi Hana
TTITLE8=true blue
TTITLE9=Renren
TTITLE10=H-A-N-A-B-I ~Kimi ga Ita Natsu~
TTITLE11=Boku no Tegami
TTITLE12=Sotsugyo
TTITLE13=Taiyo no Kiss
TTITLE14=glory colors ~Kaze no Tobira~
TTITLE15=Egao Biyori
TTITLE16=believe in love
EXTD=YEAR: 2005
EXTT0=
EXTT1=
EXTT2=
EXTT3=
EXTT4=
EXTT5=
EXTT6=
EXTT7=
EXTT8=
EXTT9=
EXTT10=
EXTT11=
EXTT12=
EXTT13=
EXTT14=
EXTT15=
EXTT16=
PLAYORDER=
